<svg xmlns="http://www.w3.org/2000/svg" fill="none" viewBox="0 0 24 24" id="Vueuse--Streamline-Svg-Logos" height="24" width="24">
  <desc>
    Vueuse Streamline Icon: https://streamlinehq.com
  </desc>
  <path fill="#35495e" d="M18.3793 0.25v12.606325c0 3.523325 -2.855975 6.3793 -6.379275 6.3793S5.620725 16.37965 5.620725 12.856325V0.25H10.13375v12.606325c0 0.66675 0.3557 1.282875 0.933125 1.61625s1.28885 0.333375 1.866275 0c0.577425 -0.333375 0.933125 -0.9495 0.933125 -1.61625V0.25h4.513025Z" stroke-width="0.25"></path>
  <path fill="#41b883" d="M22.891975 0.25v12.606325C22.891975 18.871975 18.0156 23.75 11.99995 23.75S1.10791 18.871975 1.10791 12.856325V0.25H5.62065v12.606325c0 3.523325 2.856275 6.3793 6.3793 6.3793 3.523025 0 6.3793 -2.855975 6.3793 -6.3793V0.25h4.512725Z" stroke-width="0.25"></path>
</svg>